<svg id="圖層_1" data-name="圖層 1" xmlns="http://www.w3.org/2000/svg" viewBox="0 0 404.92 405.37"><defs><style>.cls-1{fill:#32b97c;}.cls-2{fill:#0aa06e;}</style></defs><path class="cls-1" d="M218.21,405.37H185.79c-.36-1-1.26-.76-2-.83-26.91-2.61-52.55-9.74-76.21-22.85Q19,332.61,2.19,232.54c-.73-4.32-.42-8.82-2.19-13v-33.2c1.16-.48.75-1.55.85-2.39A212.51,212.51,0,0,1,4.3,161.36C15.07,112.39,39.86,72,80.05,42,136,.31,198.42-10.84,264.67,10.76c68.86,22.45,113,70.4,133.2,140a165.14,165.14,0,0,1,6.57,45.14,33.5,33.5,0,0,1-4.24-2.81c-7.11-6.46-14.15-13-21.19-19.52-11.95-11.1-23.81-22.31-35.88-33.28-2.38-2.16-4.51-4.83-7.7-6a28.12,28.12,0,0,0-6.53-9.76c-5.42-5.39-10.76-10.85-16.24-16.18a29.9,29.9,0,0,0-5.87-4.61c-10-5.73-21.11-3.78-30.16,5.22q-50.71,50.44-101.32,101c-2.55,2.55-3.73,2.29-6.07-.11C155.71,196,142,182.28,128.36,168.55c-11.58-11.64-25.47-11.62-37.17,0q-7.14,7.11-14.25,14.25c-12,12-12,25.58.06,37.73Q114.16,258,151.3,295.5c3.53,3.56,7.1,7,11.54,9.42.22,2.05,1.87,3.1,3.14,4.38q42.21,42.26,84.44,84.48c1.37,1.37,3.11,2.51,3.43,4.67-6.84,2.41-14,3.32-21.1,4.64C227.92,404,222.9,403.65,218.21,405.37Z" transform="translate(0 0)"/><path class="cls-2" d="M404.44,195.92c1,9.34.32,18.68-.63,28-2.15,20.73-7.1,40.84-15.75,59.83Q348.4,370.73,256.57,398a20.27,20.27,0,0,1-2.72.42c-.32-2.16-2.06-3.3-3.43-4.67Q208.21,351.53,166,309.3c-1.27-1.28-2.92-2.33-3.14-4.38,11.31,3.8,20.76,1.11,28.93-7.6C200.49,288,209.52,279,218.55,270q54.78-54.63,109.66-109.16c7.62-7.56,10.38-16.18,7.22-26.55,3.19,1.21,5.32,3.88,7.7,6,12.07,11,23.93,22.18,35.88,33.28,7,6.53,14.08,13.06,21.19,19.52A33.5,33.5,0,0,0,404.44,195.92Z" transform="translate(0 0)"/></svg>