<svg id="OG-Coffee" xmlns="http://www.w3.org/2000/svg" viewBox="0 0 1038.18 629.1"><defs><style>.cls-1{fill:#212529;}.cls-2{fill:#fcfcfc;stroke:#231815;stroke-miterlimit:10;}</style></defs><path class="cls-1" d="M942,53.6S979,73.68,984.58,89s5.63,17.68,5.63,28.13,4,17.67,5.62,19.28,9.64,12,8,18.48-4,8.84-4,8.84-11.25,16-20.88,20-19.29,2.41-28.93,0-28.93,0-41,2.41-33,10.45-33.75,15.27,0,44.19,0,44.19,4,41,20.09,58.66,39.37,45.8,49.82,52.23,21.69,20.93,21.69,20.93,15.27,16.88,21.7,19.29,14.5,13.66,14.5,13.66,12.06,4.82,16.07,4.82,18.49,4,19.29,12,0,16.88-7.23,19.29-21.7,4.82-24.11,3.21a28.13,28.13,0,0,1-4-3.21l-4-2.41-6.42.8a12.16,12.16,0,0,1-11.25-1.6A87.45,87.45,0,0,0,971,436.88l-5.62-2.42a38.7,38.7,0,0,0-12.06-11.25c-8-4.82-16.87-9.65-16.87-9.65s-56.25-41-78.75-53-41.78-34.56-65.09-37-29.73-2.41-36.16-6.43S742,304.27,742,304.27v-3.21s-22.5,12.85-37.77,32.14-28.12,45-32.14,55.44-12.86,28.13-12.86,28.13-1.6,6.43-1.6,9.64-.81,8.84,3.21,14.46a10.27,10.27,0,0,0,10.45,4s10.44,2.41,13.66,8.84,1.61,17.75-1.61,19.31-8.84,0-8.84,0l-5.62,2.44-6.43-1.61s-12,4-24.11,1.61-16.87-8-19.28-15.27-4.82-23.3-4.82-23.3v-16s-3.22-8.84,0-16.07,11.25-25.72,12.85-42.59,5.53-45.79,5.53-45.79l.8-18.48s-32.94,9.65-57,12.06-62.68-.81-62.68-.81L455.06,314l-5.62,4.83-53.79,63.46s-6.43,13.66,3.22,20.89,28.87,26.44,33.65,28.05,6.43,4,14.47,1.61,17.68,3.21,17.68,3.21l11.25,9.65s2.41,4-.81,10.44S462.26,465,462.26,465H420.52l-9.64-1.64-3.26-4-12.85-6.43s-34.55-28.93-48.19-45-24.91-29.73-23.31-37,10.45-23.31,10.45-23.31,3.21-9.64,5.62-16.07,4-12.05,4-12.05-102,21.69-122.94,15.27-33,21.69-33,21.69-27.26,64.35-28.81,70-8,20.09-13.66,20.89-15.27,0-18.49-3.21a15.82,15.82,0,0,1-4-7.23l1.6-6.43s-3.21-7.23-3.21-9.64.8-8,2.41-9.65,5.62-1.6,6.43-8,7.23-35.36,10.44-47.41,22.47-57.08,22.47-57.08-23,23-61.91,21.69C38.58,318.4,5,259.33,3.43,253.71s-4-11.25-2.41-12.86,18.5-2.39,27.35,3.19,26.52,25.71,49,31.33,51.42.81,79.55-25.71,78.53-85.75,83.57-94c8.11-13.29,49.78-54.29,73.94-64.29s90.8-18.48,98.84-17.68,56.25.81,96.43,8,111.69,12.08,129.37,9.68,40.17-4,49-4.82,21.7.8,21.7.8l13.66.81s13.66,3.21,24.1,2.41S766,92.18,770,89s12.86-8,12.86-8l15.27-1.61s32.14-2.41,47.42-11.25,37-21.7,37-21.7a161.93,161.93,0,0,1,14.14-24.87c4.15-6,12.93-21.86,18-21,3.82.65,2.41,24.18,4,28.2s4,10.44,4,10.44,7.94-7.42,12-10.64,11.93-9,16-7c2,1,.16,4.78-1.44,10.41s-2.42,10.45-4.83,15.27S942,53.6,942,53.6Z" transform="translate(-0.5 -0.5)"/><path class="cls-1" d="M67.25,573.2q0-33,20.46-47.86Q103.52,513.9,127,513.89a83.23,83.23,0,0,1,21.47,2.79,51.44,51.44,0,0,1,19.45,10A45.22,45.22,0,0,1,181.52,546a71.52,71.52,0,0,1,4.66,25.88q0,34.8-24.52,49.19-14.39,8.45-33.83,8.45-27.36,0-42.35-13.41Q67.26,599.61,67.25,573.2ZM127,531.42a25.15,25.15,0,0,0-7.91,6.74q-2.62,3.68-3.85,13.17a208.48,208.48,0,0,0-1.82,23.55q0,19.35,4.46,27.87a25.92,25.92,0,0,0,9.12,9.57q5.87-4.05,8.3-7.79t3.26-13.17Q140,573.9,140,565.86q0-18-4.25-25.71a23.74,23.74,0,0,0-8.73-8.73Z" transform="translate(-0.5 -0.5)"/><path class="cls-1" d="M320.1,628.67q-9.74.92-26.34.91-21.69,0-34-2a97.11,97.11,0,0,1-30.09-9.46A55.54,55.54,0,0,1,209,599.78q-7.8-11.6-7.8-27.11,0-27.45,22.69-43.1t59.16-15.65a152.52,152.52,0,0,1,15.7.76q7.39.78,21.38,3.43v17.81a75.14,75.14,0,0,0-30.6-6.7q-19.85,0-31,10.34T247.39,570.3a60.23,60.23,0,0,0,3.85,22.35q3.85,9.72,10.54,14.6,5.06,3.64,14.58,6.43v-27H258.71V571.87H320.1Z" transform="translate(-0.5 -0.5)"/><path class="cls-1" d="M497.78,627.13a76.48,76.48,0,0,1-20.87,2.45q-34,0-54.4-15.44T402.15,571q0-31,30-46.87,19.44-10.2,43.76-10.2a110.81,110.81,0,0,1,21.88,2.16v14.46a73.28,73.28,0,0,0-13.21-1.29q-12.36,0-21.07,5.31-15,9.21-15,34.51,0,26.68,10,35.45t26.64,8.77a57,57,0,0,0,12.56-1.4Z" transform="translate(-0.5 -0.5)"/><path class="cls-1" d="M489.07,573.2q0-33,20.46-47.86,15.81-11.45,39.31-11.45a83.23,83.23,0,0,1,21.47,2.79,51.44,51.44,0,0,1,19.45,10A45.22,45.22,0,0,1,603.34,546,71.52,71.52,0,0,1,608,571.91q0,34.8-24.52,49.19-14.38,8.45-33.83,8.45-27.36,0-42.35-13.41Q489.07,599.61,489.07,573.2Zm59.77-41.78a25.15,25.15,0,0,0-7.91,6.74q-2.62,3.68-3.85,13.17a208.48,208.48,0,0,0-1.82,23.55q0,19.35,4.46,27.87a25.92,25.92,0,0,0,9.12,9.57q5.86-4.05,8.3-7.79t3.24-13.17q1.43-17.46,1.42-25.5,0-18-4.25-25.71a23.68,23.68,0,0,0-8.71-8.73Z" transform="translate(-0.5 -0.5)"/><path class="cls-1" d="M626.64,514.79h76v15h-31.4v36h31.34v14.74h-31.4v48.21H626.64Z" transform="translate(-0.5 -0.5)"/><path class="cls-1" d="M717.4,514.79h76v15H762v36h31.4v14.74H762v48.21H717.4Z" transform="translate(-0.5 -0.5)"/><path class="cls-1" d="M808.17,514.79h76v15.09H852.74v35.91h31.41V580.6H852.74v33.12h31.41v14.95h-76Z" transform="translate(-0.5 -0.5)"/><path class="cls-1" d="M898.94,514.79h76v15.09h-31.4v35.91h31.4V580.6h-31.4v33.12h31.4v14.95h-76Z" transform="translate(-0.5 -0.5)"/><path class="cls-2" d="M785.9,42.46" transform="translate(-0.5 -0.5)"/></svg>