<svg id="OG-Coffee" xmlns="http://www.w3.org/2000/svg" viewBox="0 0 1038.16 623.83"><defs><style>.cls-1{fill:#191919;}.cls-2{font-size:143.08px;font-family:BigJohn, Big John;}.cls-3{letter-spacing:-0.01em;}</style></defs><path class="cls-1" d="M1045.4,122.23s37,20.08,42.59,35.35,5.63,17.68,5.63,28.13,4,17.67,5.62,19.28,9.64,12,8,18.48-4,8.84-4,8.84-11.25,16.07-20.89,20.09-19.29,2.41-28.93,0-28.93,0-41,2.41-33,10.45-33.75,15.27,0,44.19,0,44.19,4,41,20.09,58.66,39.37,45.8,49.82,52.23,21.69,20.89,21.69,20.89,15.27,16.88,21.7,19.29S1106.47,479,1106.47,479s12.06,4.82,16.07,4.82,18.49,4,19.29,12.05,0,16.88-7.23,19.29-21.7,4.82-24.11,3.21a28.72,28.72,0,0,1-4-3.21l-4-2.41-6.42.8a12.14,12.14,0,0,1-11.25-1.6,87.27,87.27,0,0,0-10.45-6.43l-5.62-2.41a38.75,38.75,0,0,0-12.06-11.25c-8-4.82-16.87-9.65-16.87-9.65s-56.25-41-78.75-53-41.78-34.55-65.09-37-29.73-2.41-36.16-6.43-14.46-12.86-14.46-12.86v-3.21s-22.5,12.85-37.77,32.14-28.12,45-32.14,55.44-12.86,28.13-12.86,28.13-1.6,6.43-1.6,9.64-.81,8.84,3.21,14.46a10.27,10.27,0,0,0,10.45,4s10.44,2.41,13.66,8.84,1.61,17.68-1.61,19.29-8.84,0-8.84,0l-5.62,2.41-6.43-1.61s-12,4-24.11,1.61-16.87-8-19.28-15.27-4.82-23.3-4.82-23.3V489.45s-3.22-8.84,0-16.07,11.25-25.72,12.85-42.59S736,385,736,385l.8-18.48s-32.94,9.65-57.05,12.06-62.68-.81-62.68-.81l-58.66,4.82-5.62,4.83L499,450.88s-6.43,13.66,3.22,20.89,28.92,26.51,33.74,28.12,6.43,4,14.47,1.61,17.68,3.21,17.68,3.21l11.25,9.65s2.41,4-.81,10.44-12.85,8.84-12.85,8.84H523.9L514.26,532,511,528l-12.85-6.43s-34.55-28.93-48.21-45-24.91-29.73-23.31-37,10.45-23.31,10.45-23.31,3.21-9.64,5.62-16.07,4-12.05,4-12.05-102.05,21.69-122.94,15.27-32.95,21.69-32.95,21.69S263.55,489.45,262,495.07s-8,20.09-13.66,20.89-15.27,0-18.49-3.21a15.74,15.74,0,0,1-4-7.23l1.6-6.43s-3.21-7.23-3.21-9.64.8-8,2.41-9.65,5.62-1.6,6.43-8,7.23-35.36,10.44-47.41S266,367.31,266,367.31,243,390.26,204.09,389c-62.09-2-95.62-61.07-97.23-66.69s-4-11.25-2.41-12.86,18.48-2.41,27.32,3.22,26.52,25.71,49,31.33,51.42.81,79.55-25.71,78.53-85.75,83.57-94C352,211,393.67,170,417.83,160s90.8-18.48,98.84-17.68,56.25.81,96.43,8S724.79,162.4,742.47,160s40.17-4,49-4.82,21.7.8,21.7.8l13.66.81s13.66,3.21,24.1,2.41,18.49,1.61,22.5-1.61,12.86-8,12.86-8l15.27-1.61s32.14-2.41,47.41-11.25,37-21.7,37-21.7a162.19,162.19,0,0,1,14.14-24.87c4.15-6,12.93-21.86,18-21,3.82.65,2.41,24.18,4,28.2s4,10.44,4,10.44,7.94-7.42,12-10.64,11.93-9,16-7c2,1,.16,4.78-1.44,10.41s-2.42,10.45-4.83,15.27S1045.4,122.23,1045.4,122.23Z" transform="translate(-103.92 -69.09)"/><text class="cls-2" transform="translate(74.32 601.22)"><tspan class="cls-3">O</tspan><tspan x="122.48" y="0">G </tspan><tspan class="cls-3" x="307.91" y="0">C</tspan><tspan x="416.36" y="0">OFFEE</tspan></text></svg>