<svg id="OG-Coffee" xmlns="http://www.w3.org/2000/svg" xmlns:xlink="http://www.w3.org/1999/xlink" viewBox="0 0 1039.15 648.14"><defs><style>.cls-1{stroke:#2d2b29;fill:url(#未命名漸層_36);}.cls-1,.cls-5{stroke-miterlimit:10;}.cls-2,.cls-3,.cls-4{isolation:isolate;}.cls-3,.cls-4{font-size:143.08px;font-family:ArialMT, Arial;}.cls-3{letter-spacing:-0.01em;}.cls-5{fill:#fcfcfc;stroke:#231815;}</style><linearGradient id="未命名漸層_36" x1="519.08" y1="475.73" x2="519.08" y2="0.04" gradientUnits="userSpaceOnUse"><stop offset="0" stop-color="#fff"/><stop offset="1" stop-color="#734500"/></linearGradient></defs><path class="cls-1" d="M941.48,53.14s37,20.08,42.59,35.35,5.63,17.68,5.63,28.13,4,17.67,5.62,19.28,9.64,12,8,18.48-4,8.84-4,8.84-11.25,16.07-20.89,20.09-19.29,2.41-28.93,0-28.93,0-41,2.41-33,10.45-33.75,15.27,0,44.19,0,44.19,4,41,20.09,58.66,39.37,45.8,49.82,52.23S966.35,377,966.35,377s15.27,16.88,21.7,19.29,14.5,13.66,14.5,13.66,12.06,4.82,16.07,4.82,18.49,4,19.29,12,0,16.88-7.23,19.29-21.7,4.82-24.11,3.21a28.13,28.13,0,0,1-4-3.21l-4-2.41-6.42.8a12.16,12.16,0,0,1-11.25-1.6,87.45,87.45,0,0,0-10.45-6.43L964.83,434a38.81,38.81,0,0,0-12.06-11.25c-8-4.82-16.87-9.65-16.87-9.65s-56.25-41-78.75-53-41.78-34.55-65.09-37-29.73-2.41-36.16-6.43-14.46-12.86-14.46-12.86v-3.21s-22.5,12.85-37.77,32.14-28.12,45-32.14,55.44-12.86,28.13-12.86,28.13-1.6,6.43-1.6,9.64-.81,8.84,3.21,14.46a10.27,10.27,0,0,0,10.45,4s10.44,2.41,13.66,8.84S686,471,682.78,472.56s-8.84,0-8.84,0L668.32,475l-6.43-1.61s-12,4-24.11,1.61-16.87-8-19.28-15.27-4.82-23.3-4.82-23.3v-16s-3.22-8.84,0-16.07,11.25-25.72,12.85-42.59,5.55-45.79,5.55-45.79l.8-18.48s-32.94,9.65-57,12.06-62.68-.81-62.68-.81l-58.66,4.82-5.62,4.83-53.79,63.46s-6.43,13.66,3.22,20.89S427.22,429.19,432,430.8s6.43,4,14.47,1.61,17.68,3.21,17.68,3.21l11.25,9.65s2.41,4-.81,10.44-12.85,8.84-12.85,8.84H420l-9.64-1.64-3.26-4-12.85-6.43s-34.55-28.93-48.21-45-24.91-29.73-23.31-37,10.45-23.31,10.45-23.31,3.21-9.64,5.62-16.07,4-12.05,4-12.05-102,21.69-122.94,15.27-33,21.69-33,21.69-27.26,64.35-28.81,70-8,20.09-13.66,20.89-15.27,0-18.49-3.21a15.82,15.82,0,0,1-4-7.23l1.6-6.43s-3.21-7.23-3.21-9.64.8-8,2.41-9.65,5.62-1.6,6.43-8,7.23-35.36,10.44-47.41,22.48-57.08,22.48-57.08-23,22.95-61.91,21.69c-62.09-2-95.62-61.07-97.23-66.69s-4-11.25-2.41-12.86S19,238,27.85,243.58s26.52,25.71,49,31.33,51.42.81,79.55-25.71,78.53-85.75,83.57-94c8.11-13.29,49.78-54.29,73.94-64.29s90.8-18.48,98.84-17.68,56.25.81,96.43,8,111.69,12.08,129.37,9.68,40.17-4,49-4.82,21.7.8,21.7.8l13.66.81s13.66,3.21,24.1,2.41,18.49,1.61,22.5-1.61,12.86-8,12.86-8l15.27-1.61s32.14-2.41,47.41-11.25,37-21.7,37-21.7a161.93,161.93,0,0,1,14.14-24.87c4.15-6,12.93-21.86,18-21,3.82.65,2.41,24.18,4,28.2s4,10.44,4,10.44,7.94-7.42,12-10.64,11.93-9,16-7c2,1,.16,4.78-1.44,10.41s-2.42,10.45-4.83,15.27S941.48,53.14,941.48,53.14Z" transform="translate(0.49 0.46)"/><g class="cls-2"><text class="cls-3" transform="translate(74.81 601.68)">O</text><text class="cls-4" transform="translate(197.29 601.68)">G </text><text class="cls-3" transform="translate(382.72 601.68)">C</text><text class="cls-4" transform="translate(491.17 601.68)">OFFEE</text></g><path class="cls-5" d="M785.83,50" transform="translate(0.49 0.46)"/></svg>