<svg id="OG-Coffee" xmlns="http://www.w3.org/2000/svg" xmlns:xlink="http://www.w3.org/1999/xlink" viewBox="0 0 1039.18 629.58"><defs><style>.cls-1{stroke:#2d2b29;fill:url(#未命名漸層);}.cls-1,.cls-4{stroke-miterlimit:10;}.cls-2{isolation:isolate;}.cls-3{fill:#6e6457;}.cls-4{fill:#fcfcfc;stroke:#231815;}</style><linearGradient id="未命名漸層" x1="519.52" y1="166.24" x2="519.52" y2="641.96" gradientTransform="matrix(1, 0, 0, -1, 0.49, 650.46)" gradientUnits="userSpaceOnUse"><stop offset="0" stop-color="#fff"/><stop offset="1" stop-color="#734500"/></linearGradient></defs><path class="cls-1" d="M942.42,61.6S979.42,81.68,985,97s5.63,17.68,5.63,28.13,4,17.67,5.62,19.28,9.64,12,8,18.48-4,8.84-4,8.84S989,187.75,979.37,191.77s-19.29,2.41-28.93,0-28.93,0-41,2.41-33,10.45-33.75,15.27,0,44.19,0,44.19,4,41,20.09,58.66,39.37,45.8,49.82,52.23,21.69,20.93,21.69,20.93,15.27,16.88,21.7,19.29,14.5,13.66,14.5,13.66,12.06,4.82,16.07,4.82,18.49,4,19.29,12,0,16.88-7.23,19.29-21.7,4.82-24.11,3.21a28.7,28.7,0,0,1-4-3.21l-4-2.41-6.42.8a12.16,12.16,0,0,1-11.25-1.6,87.45,87.45,0,0,0-10.45-6.43l-5.62-2.42a38.7,38.7,0,0,0-12.06-11.25c-8-4.82-16.87-9.65-16.87-9.65s-56.25-41-78.75-53S816.31,334,793,331.56s-29.73-2.41-36.16-6.43-14.46-12.86-14.46-12.86v-3.21s-22.5,12.85-37.77,32.14-28.12,45-32.14,55.44-12.86,28.13-12.86,28.13-1.6,6.43-1.6,9.64-.81,8.84,3.21,14.46a10.27,10.27,0,0,0,10.45,4s10.44,2.41,13.66,8.84,1.61,17.75-1.61,19.31-8.84,0-8.84,0l-5.62,2.44-6.43-1.61s-12,4-24.11,1.61-16.87-8-19.28-15.27-4.82-23.3-4.82-23.3v-16s-3.22-8.84,0-16.07,11.25-25.72,12.85-42.59S633,324.44,633,324.44l.8-18.48s-32.94,9.65-57,12.06-62.68-.81-62.68-.81L455.48,322l-5.62,4.83-53.79,63.46s-6.43,13.66,3.22,20.89,28.87,26.44,33.65,28.05,6.43,4,14.47,1.61,17.68,3.21,17.68,3.21l11.25,9.65s2.41,4-.81,10.44S462.68,473,462.68,473H420.94l-9.64-1.64-3.26-4-12.85-6.43S360.64,432,347,415.94s-24.91-29.73-23.31-37,10.45-23.31,10.45-23.31,3.21-9.64,5.62-16.07,4-12.05,4-12.05-102,21.69-122.94,15.27-33,21.69-33,21.69-27.26,64.35-28.81,70-8,20.09-13.66,20.89-15.27,0-18.49-3.21a15.82,15.82,0,0,1-4-7.23l1.6-6.43s-3.21-7.23-3.21-9.64.8-8,2.41-9.65,5.62-1.6,6.43-8,7.23-35.36,10.44-47.41S163,306.71,163,306.71s-23,23-61.91,21.69C39,326.4,5.46,267.33,3.85,261.71s-4-11.25-2.41-12.86,18.5-2.39,27.35,3.19,26.52,25.71,49,31.33,51.42.81,79.55-25.71,78.53-85.75,83.57-94c8.11-13.29,49.78-54.29,73.94-64.29s90.8-18.48,98.84-17.68,56.25.81,96.43,8,111.69,12.08,129.37,9.68,40.17-4,49-4.82,21.7.8,21.7.8l13.66.81s13.66,3.21,24.1,2.41,18.49,1.61,22.5-1.61,12.86-8,12.86-8l15.27-1.61S830.72,84.94,846,76.1s37-21.7,37-21.7a161.93,161.93,0,0,1,14.14-24.87c4.15-6,12.93-21.86,18-21,3.82.65,2.41,24.18,4,28.2s4,10.44,4,10.44,7.94-7.42,12-10.64,11.93-9,16-7c2,1,.16,4.78-1.44,10.41s-2.42,10.45-4.83,15.27S942.42,61.6,942.42,61.6Z" transform="translate(-0.42 -8)"/><g class="cls-2"><path class="cls-3" d="M67.67,581.2q0-33,20.46-47.86,15.81-11.45,39.31-11.45a83.49,83.49,0,0,1,21.47,2.79,51.5,51.5,0,0,1,19.45,10,45.21,45.21,0,0,1,13.58,19.35,71.64,71.64,0,0,1,4.66,25.88q0,34.8-24.52,49.19-14.39,8.45-33.83,8.45-27.36,0-42.35-13.41Q67.68,607.61,67.67,581.2Zm59.77-41.78a25.15,25.15,0,0,0-7.91,6.74q-2.62,3.68-3.85,13.17a207.6,207.6,0,0,0-1.82,23.55q0,19.35,4.46,27.87a25.92,25.92,0,0,0,9.12,9.57q5.87-4.05,8.3-7.79T139,599.36q1.43-17.46,1.42-25.5,0-18-4.25-25.71A23.71,23.71,0,0,0,127.44,539.42Z" transform="translate(-0.42 -8)"/><path class="cls-3" d="M320.52,636.67q-9.74.92-26.34.91-21.69,0-34-2a97.22,97.22,0,0,1-30.09-9.46,55.54,55.54,0,0,1-20.66-18.34q-7.8-11.6-7.8-27.11,0-27.45,22.69-43.1t59.16-15.65a152.81,152.81,0,0,1,15.7.76q7.39.78,21.38,3.43v17.81a75.19,75.19,0,0,0-30.6-6.7q-19.85,0-31,10.34t-11.15,30.74a60.23,60.23,0,0,0,3.85,22.35q3.85,9.72,10.54,14.6,5.06,3.64,14.58,6.43v-27H259.13V579.87h61.39Z" transform="translate(-0.42 -8)"/><path class="cls-3" d="M498.2,635.13a76.54,76.54,0,0,1-20.87,2.45q-34,0-54.4-15.44T402.57,579q0-31,30-46.87,19.44-10.2,43.76-10.2a110.67,110.67,0,0,1,21.88,2.16v14.46A73.16,73.16,0,0,0,485,537.26q-12.36,0-21.07,5.31-15,9.21-15,34.51,0,26.68,10,35.45t26.64,8.77a57.23,57.23,0,0,0,12.56-1.4Z" transform="translate(-0.42 -8)"/><path class="cls-3" d="M489.49,581.2q0-33,20.46-47.86,15.81-11.45,39.31-11.45a83.49,83.49,0,0,1,21.47,2.79,51.5,51.5,0,0,1,19.45,10,45.21,45.21,0,0,1,13.58,19.35,71.64,71.64,0,0,1,4.66,25.88q0,34.8-24.52,49.19-14.39,8.45-33.83,8.45-27.36,0-42.35-13.41Q489.5,607.61,489.49,581.2Zm59.77-41.78a25.15,25.15,0,0,0-7.91,6.74q-2.62,3.68-3.85,13.17a207.6,207.6,0,0,0-1.82,23.55q0,19.35,4.46,27.87a25.92,25.92,0,0,0,9.12,9.57q5.87-4.05,8.3-7.79t3.24-13.17q1.43-17.46,1.42-25.5,0-18-4.25-25.71A23.64,23.64,0,0,0,549.26,539.42Z" transform="translate(-0.42 -8)"/><path class="cls-3" d="M627.06,522.79h76v15h-31.4v36H703v14.74h-31.4v48.21H627.06Z" transform="translate(-0.42 -8)"/><path class="cls-3" d="M717.82,522.79h76v15H762.4v36h31.4v14.74H762.4v48.21H717.82Z" transform="translate(-0.42 -8)"/><path class="cls-3" d="M808.59,522.79h76v15.09H853.16v35.91h31.41V588.6H853.16v33.12h31.41v14.95h-76Z" transform="translate(-0.42 -8)"/><path class="cls-3" d="M899.36,522.79h76v15.09h-31.4v35.91h31.4V588.6h-31.4v33.12h31.4v14.95h-76Z" transform="translate(-0.42 -8)"/></g><path class="cls-4" d="M786.32,50.46" transform="translate(-0.42 -8)"/></svg>